# xmcd
#
# Track frame offsets:
#   150
#   18188
#   30378
#   41929
#   57825
#   77601
#   91503
#   106765
#   123089
#   139881
#   160037
#   172223
#   185402
#   197141
#   208845
#   228950
#   240470
#   261588
#   276713
#   290750
#   309640
#
# Disc length: 4403 seconds
#
# Revision: 0
# Processed by: cddbd v1.5.1PL2 Copyright (c) Steve Scherf et al.
# Submitted via: GXTranscoder 2.0.1939
#
DISCID=2b113115
DTITLE=Various Artist - CD NR3
DYEAR=1900
DGENRE=Pop
TTITLE0=De Roos
TTITLE1=You are so beautifull
TTITLE2=Canta,Canta,Canta
TTITLE3=Apres toi
TTITLE4=Draai je om
TTITLE5=Don't cry for Louie
TTITLE6=Dat Gevoel
TTITLE7=Ven a mi
TTITLE8=Hemelsblauw
TTITLE9=Vivo per lei
TTITLE10=El caballo blanco
TTITLE11=Vaya con dios
TTITLE12=Mijn hart zingt van liefde
TTITLE13=18 Yellow roses
TTITLE14=Don't break my heart
TTITLE15=Cheek to cheek
TTITLE16=Mississippi
TTITLE17=Ik hoef je niet te zeggen
TTITLE18=Green,green grass of home
TTITLE19=Manana se va
TTITLE20=Amigos para sempre
EXTD=
EXTT0=
EXTT1=
EXTT2=
EXTT3=
EXTT4=
EXTT5=
EXTT6=
EXTT7=
EXTT8=
EXTT9=
EXTT10=
EXTT11=
EXTT12=
EXTT13=
EXTT14=
EXTT15=
EXTT16=
EXTT17=
EXTT18=
EXTT19=
EXTT20=
PLAYORDER=
